<svg width="71" height="80" viewBox="0 0 64 72" fill="none" xmlns="http://www.w3.org/2000/svg">
<path id="Vector" d="M63.9409 26.0003H47.0576C46.8324 24.267 46.371 22.7025 45.6731 21.3068C44.9753 19.9111 44.0523 18.718 42.9043 17.7275C41.7562 16.737 40.3943 15.9829 38.8185 15.4651C37.2652 14.9249 35.5431 14.6547 33.6522 14.6547C30.298 14.6547 27.4053 15.4764 24.9742 17.1197C22.5655 18.763 20.7083 21.1379 19.4026 24.2445C18.1195 27.351 17.478 31.1104 17.478 35.5225C17.478 40.1148 18.1308 43.9642 19.4364 47.0707C20.7646 50.1548 22.6217 52.4847 25.0079 54.0604C27.4166 55.6137 30.2643 56.3904 33.5509 56.3904C35.3968 56.3904 37.0739 56.154 38.5821 55.6812C40.1129 55.2085 41.4523 54.5219 42.6004 53.6215C43.7709 52.6985 44.7277 51.5842 45.4705 50.2786C46.2359 48.9504 46.7649 47.4534 47.0576 45.7876L63.9409 45.8889C63.6483 48.9504 62.7591 51.9669 61.2733 54.9384C59.8101 57.9098 57.7954 60.6224 55.2291 63.0761C52.6628 65.5073 49.5338 67.4433 45.842 68.884C42.1726 70.3247 37.9631 71.0451 33.2132 71.0451C26.9551 71.0451 21.3499 69.6719 16.3974 66.9256C11.4675 64.1567 7.57307 60.1272 4.71416 54.8371C1.85525 49.547 0.425781 43.1088 0.425781 35.5225C0.425781 27.9138 1.87774 21.4643 4.78168 16.1742C7.68561 10.8841 11.6138 6.86589 16.5663 4.11954C21.5187 1.37318 27.0677 0 33.2132 0C37.4003 0 41.2722 0.585291 44.829 1.75587C48.3857 2.90393 51.5148 4.59227 54.2161 6.82087C56.9174 9.02696 59.1123 11.7396 60.8006 14.9586C62.4889 18.1777 63.5357 21.8583 63.9409 26.0003Z" fill="black"/>
</svg>