<svg width="58" height="76" viewBox="0 0 58 76" fill="none" xmlns="http://www.w3.org/2000/svg">
<path id="Vector" d="M0.484375 75.3743V0H30.2219C35.9388 0 40.8091 1.09185 44.833 3.27554C48.8569 5.4347 51.9239 8.44035 54.034 12.2925C56.1686 16.1201 57.2359 20.5366 57.2359 25.5419C57.2359 30.5472 56.1564 34.9637 53.9972 38.7913C51.838 42.6189 48.7097 45.6 44.6122 47.7346C40.5393 49.8692 35.6075 50.9366 29.8171 50.9366H10.8631V38.1656H27.2408C30.3078 38.1656 32.835 37.6381 34.8224 36.583C36.8343 35.5035 38.331 34.019 39.3125 32.1298C40.3184 30.216 40.8214 28.02 40.8214 25.5419C40.8214 23.0392 40.3184 20.8555 39.3125 18.9908C38.331 17.1015 36.8343 15.6416 34.8224 14.6111C32.8104 13.5561 30.2587 13.0286 27.1672 13.0286H16.4205V75.3743H0.484375Z" fill="black"/>
</svg>
