<svg width="59" height="78" viewBox="0 0 59 78" fill="none" xmlns="http://www.w3.org/2000/svg">
<path id="Vector" d="M0.515625 76.4036V76.9036H1.01562H16.9517H17.4517V76.4036V52.4659H30.3483C36.1986 52.4659 41.2139 51.3876 45.3745 49.2073C49.5532 47.0304 52.7547 43.9826 54.9639 40.0662C57.171 36.1538 58.2672 31.6504 58.2672 26.5712C58.2672 21.4935 57.1839 16.9914 55.0027 13.0796C52.8444 9.14032 49.7062 6.0675 45.6018 3.86487C41.4889 1.63309 36.5325 0.529297 30.7531 0.529297H1.01562H0.515625V1.0293V76.4036ZM27.772 38.6949H17.4517V14.5579H27.6984C30.7369 14.5579 33.2022 15.0768 35.1214 16.0833L35.1257 16.0855C37.0512 17.0717 38.4695 18.4594 39.4 20.2506L39.3999 20.2506L39.4037 20.2575C40.3637 22.0371 40.8527 24.1364 40.8527 26.5712C40.8527 28.9802 40.3642 31.0942 39.4011 32.9264L39.4 32.9286C38.4684 34.7218 37.0475 36.1359 35.1177 37.1715C33.2241 38.1763 30.7847 38.6949 27.772 38.6949Z" stroke="black"/>
</svg>
