<svg width="69" height="78" viewBox="0 0 69 78" fill="none" xmlns="http://www.w3.org/2000/svg">
<path id="Vector" d="M51.914 25.8302C51.3987 24.0391 50.6749 22.4565 49.7425 21.0825C48.8102 19.684 47.6693 18.5063 46.3198 17.5493C44.9949 16.5679 43.4736 15.8196 41.7561 15.3043C40.0631 14.7891 38.1861 14.5314 36.1251 14.5314C32.273 14.5314 28.887 15.4883 25.9672 17.4021C23.072 19.3159 20.8147 22.1008 19.1953 25.7566C17.576 29.3879 16.7663 33.8289 16.7663 39.0796C16.7663 44.3303 17.5637 48.7958 19.1585 52.4762C20.7534 56.1566 23.0107 58.966 25.9304 60.9043C28.8502 62.8181 32.2975 63.775 36.2723 63.775C39.8791 63.775 42.9584 63.1371 45.5101 61.8612C48.0864 60.5608 50.0493 58.7329 51.3987 56.3774C52.7727 54.022 53.4597 51.2372 53.4597 48.0229L56.6985 48.5014H37.266V36.5033H68.807V45.9987C68.807 52.6234 67.4084 58.3158 64.6113 63.0757C61.8142 67.8112 57.9621 71.467 53.0549 74.0433C48.1477 76.595 42.529 77.8709 36.1987 77.8709C29.1324 77.8709 22.9248 76.3129 17.576 73.1968C12.2271 70.0562 8.05602 65.6029 5.06264 59.837C2.0938 54.0465 0.609375 47.1765 0.609375 39.2268C0.609375 33.1174 1.49267 27.6704 3.25926 22.8859C5.05038 18.0769 7.55305 14.0039 10.7672 10.667C13.9815 7.33014 17.7232 4.79067 21.9924 3.04862C26.2617 1.30657 30.8867 0.435547 35.8675 0.435547C40.1367 0.435547 44.1115 1.06121 47.7919 2.31255C51.4723 3.53934 54.7356 5.28139 57.5818 7.53869C60.4525 9.796 62.7956 12.4827 64.6113 15.5987C66.427 18.6903 67.5924 22.1008 68.1077 25.8302H51.914Z" fill="black"/>
</svg>
