<svg width="71" height="80" viewBox="0 0 71 80" fill="none" xmlns="http://www.w3.org/2000/svg">
<path id="Vector" d="M68.8998 28.9189H69.4623L69.3964 28.3603C68.8748 23.9391 67.6808 20.0002 65.8067 16.5513C63.9608 13.1093 61.5634 10.1989 58.6151 7.82502C55.6699 5.4291 52.2907 3.60973 48.4824 2.36512C44.6973 1.12006 40.5956 0.5 36.1812 0.5C29.4771 0.5 23.428 2.04035 18.0464 5.12962C12.6592 8.1975 8.39944 12.6609 5.26696 18.5032C2.12774 24.3581 0.570312 31.4364 0.570312 39.7177C0.570312 47.9735 2.10286 55.0384 5.19178 60.8924L5.19256 60.8939C8.30025 66.7363 12.5352 71.2121 17.8975 74.3048L17.8984 74.3053C23.2813 77.3955 29.38 78.9353 36.1812 78.9353C41.0645 78.9353 45.4565 78.2041 49.3499 76.7316L49.3515 76.731C53.2553 75.2391 56.6222 73.2209 59.4451 70.6728L59.4452 70.6727C62.2847 68.1072 64.5431 65.2013 66.216 61.9554C67.9106 58.6905 68.9717 55.2965 69.3962 51.7756L69.4634 51.2183L68.9021 51.2157L52.7821 51.1421L52.3633 51.1402L52.2879 51.5522C51.9297 53.5106 51.2871 55.2428 50.3654 56.7553L50.3654 56.7553L50.3624 56.7602C49.4621 58.2766 48.3267 59.5656 46.9548 60.6304C45.5825 61.671 44.0051 62.4668 42.2177 63.0149L42.2158 63.0155C40.4537 63.5632 38.5292 63.8395 36.4388 63.8395C32.7214 63.8395 29.4683 62.9294 26.6621 61.122C23.8618 59.3184 21.6635 56.6409 20.0771 53.0602C18.518 49.4854 17.7272 45.0441 17.7272 39.7177C17.7272 34.54 18.5175 30.1711 20.0778 26.5946L20.0782 26.5935C21.6407 22.9879 23.8279 20.2729 26.6303 18.4205L26.6327 18.4189C29.436 16.5421 32.7348 15.5959 36.5493 15.5959C38.6607 15.5959 40.6064 15.8957 42.3902 16.4903L42.392 16.4909C44.2033 17.0867 45.7926 17.942 47.1652 19.0543C48.537 20.1659 49.6612 21.5142 50.5387 23.1032L50.5402 23.106C51.414 24.6646 51.9977 26.4564 52.2847 28.4888L52.3454 28.9189H52.7798H68.8998Z" stroke="black"/>
</svg>
