<svg width="63" height="78" viewBox="0 0 63 78" fill="none" xmlns="http://www.w3.org/2000/svg">
<path id="Vector" d="M1.36719 76.4036V76.9036H1.86719H17.8033H18.3033V76.4036V50.184H29.1362L43.2722 76.6393L43.4134 76.9036H43.7132H61.3054H62.1482L61.7443 76.164L46.0117 47.3569C46.0772 47.3268 46.1425 47.2964 46.2077 47.2658C50.387 45.3136 53.5938 42.5013 55.8082 38.8274L55.809 38.8261C58.0228 35.128 59.1187 30.7295 59.1187 25.6511C59.1187 20.5982 58.0355 16.1786 55.8503 12.4102C53.6884 8.61496 50.5336 5.69015 46.4033 3.63713C42.2938 1.55768 37.3547 0.529297 31.6047 0.529297H1.86719H1.36719V1.0293V76.4036ZM28.6236 36.3763H18.3033V14.5579H28.55C31.5719 14.5579 34.0354 15.0057 35.9627 15.8754L35.9627 15.8754L35.9694 15.8783C37.9195 16.7241 39.3398 17.9565 40.2611 19.5689L40.2638 19.5735C41.2147 21.197 41.7042 23.2147 41.7042 25.6511C41.7042 28.0626 41.2149 30.0408 40.2671 31.6128L40.267 31.6127L40.2643 31.6174C39.3447 33.1807 37.9385 34.365 36.0137 35.1631C34.0814 35.9642 31.6246 36.3763 28.6236 36.3763Z" stroke="black"/>
</svg>
