<svg width="60" height="78" viewBox="0 0 60 78" fill="none" xmlns="http://www.w3.org/2000/svg">
<path id="Vector" d="M43.5642 23.1435C43.2698 20.1747 42.0062 17.8683 39.7734 16.2244C37.5407 14.5805 34.5105 13.7585 30.6829 13.7585C28.0821 13.7585 25.8861 14.1266 24.095 14.8627C22.3039 15.5742 20.9299 16.5679 19.973 17.8438C19.0406 19.1196 18.5744 20.5673 18.5744 22.1866C18.5253 23.5361 18.8075 24.7138 19.4209 25.7198C20.0588 26.7258 20.9299 27.5968 22.034 28.3329C23.1381 29.0444 24.414 29.6701 25.8616 30.2099C27.3092 30.7251 28.855 31.1668 30.4989 31.5348L37.2708 33.1542C40.5586 33.8903 43.5765 34.8717 46.3245 36.0985C49.0726 37.3253 51.4525 38.8343 53.4645 40.6254C55.4764 42.4165 57.0345 44.5266 58.1386 46.9556C59.2672 49.3847 59.8438 52.1695 59.8684 55.3101C59.8438 59.9229 58.6661 63.9222 56.3352 67.3082C54.0288 70.6696 50.6919 73.2827 46.3245 75.1474C41.9817 76.9876 36.7433 77.9077 30.6093 77.9077C24.5244 77.9077 19.2246 76.9753 14.71 75.1106C10.2199 73.2459 6.7113 70.4856 4.18411 66.8297C1.68144 63.1493 0.368773 58.5979 0.246094 53.1755H15.6669C15.8387 55.7027 16.5625 57.8128 17.8383 59.5058C19.1387 61.1742 20.8685 62.4378 23.0277 63.2966C25.2114 64.1308 27.6772 64.5479 30.4253 64.5479C33.1242 64.5479 35.4674 64.1553 37.4548 63.3702C39.4667 62.585 41.0248 61.4932 42.1289 60.0946C43.233 58.6961 43.7851 57.089 43.7851 55.2733C43.7851 53.5803 43.2821 52.1572 42.2761 51.0041C41.2947 49.8509 39.847 48.8694 37.9332 48.0598C36.044 47.2501 33.7253 46.514 30.9773 45.8515L22.7701 43.7905C16.4153 42.2447 11.3977 39.828 7.71727 36.5401C4.03689 33.2523 2.20896 28.8236 2.23349 23.2539C2.20896 18.6903 3.42349 14.7032 5.87708 11.2927C8.3552 7.8822 11.7534 5.22005 16.0718 3.30625C20.3901 1.39245 25.2973 0.435547 30.7933 0.435547C36.3875 0.435547 41.2701 1.39245 45.4412 3.30625C49.6369 5.22005 52.9002 7.8822 55.2311 11.2927C57.562 14.7032 58.7642 18.6535 58.8378 23.1435H43.5642Z" fill="black"/>
</svg>
