<svg width="61" height="78" viewBox="0 0 61 78" fill="none" xmlns="http://www.w3.org/2000/svg">
<path id="Vector" d="M44.1658 23.1435C43.8714 20.1747 42.6077 17.8683 40.375 16.2244C38.1422 14.5805 35.112 13.7585 31.2844 13.7585C28.6836 13.7585 26.4877 14.1266 24.6966 14.8627C22.9054 15.5742 21.5314 16.5679 20.5745 17.8438C19.6421 19.1196 19.176 20.5673 19.176 22.1866C19.1269 23.5361 19.4091 24.7138 20.0225 25.7198C20.6604 26.7258 21.5314 27.5968 22.6355 28.3329C23.7396 29.0444 25.0155 29.6701 26.4631 30.2099C27.9107 30.7251 29.4565 31.1668 31.1004 31.5348L37.8723 33.1542C41.1602 33.8903 44.1781 34.8717 46.9261 36.0985C49.6741 37.3253 52.0541 38.8343 54.066 40.6254C56.078 42.4165 57.636 44.5266 58.7401 46.9556C59.8688 49.3847 60.4454 52.1695 60.4699 55.3101C60.4454 59.9229 59.2677 63.9222 56.9367 67.3082C54.6304 70.6696 51.2935 73.2827 46.9261 75.1474C42.5832 76.9876 37.3448 77.9077 31.2108 77.9077C25.1259 77.9077 19.8262 76.9753 15.3116 75.1106C10.8215 73.2459 7.31284 70.4856 4.78565 66.8297C2.28298 63.1493 0.970336 58.5979 0.847656 53.1755H16.2684C16.4402 55.7027 17.164 57.8128 18.4399 59.5058C19.7403 61.1742 21.4701 62.4378 23.6292 63.2966C25.8129 64.1308 28.2788 64.5479 31.0268 64.5479C33.7258 64.5479 36.0689 64.1553 38.0564 63.3702C40.0683 62.585 41.6263 61.4932 42.7304 60.0946C43.8346 58.6961 44.3866 57.089 44.3866 55.2733C44.3866 53.5803 43.8836 52.1572 42.8777 51.0041C41.8962 49.8509 40.4486 48.8694 38.5348 48.0598C36.6455 47.2501 34.3269 46.514 31.5789 45.8515L23.3716 43.7905C17.0168 42.2447 11.9992 39.828 8.31884 36.5401C4.63845 33.2523 2.81052 28.8236 2.83506 23.2539C2.81052 18.6903 4.02505 14.7032 6.47864 11.2927C8.95677 7.8822 12.355 5.22005 16.6733 3.30625C20.9916 1.39245 25.8988 0.435547 31.3949 0.435547C36.989 0.435547 41.8717 1.39245 46.0428 3.30625C50.2384 5.22005 53.5017 7.8822 55.8326 11.2927C58.1635 14.7032 59.3658 18.6535 59.4394 23.1435H44.1658Z" fill="black"/>
</svg>
