<svg width="65" height="76" viewBox="0 0 65 76" fill="none" xmlns="http://www.w3.org/2000/svg">
<path id="Vector" d="M27.247 75.8392H0.527344V0.464844H27.4678C35.0494 0.464844 41.5759 1.9738 47.0474 4.99172C52.5189 7.9851 56.7269 12.2911 59.6712 17.9099C62.64 23.5286 64.1244 30.2514 64.1244 38.0784C64.1244 45.9299 62.64 52.6773 59.6712 58.3205C56.7269 63.9638 52.4944 68.2944 46.9738 71.3123C41.4778 74.3302 34.9022 75.8392 27.247 75.8392ZM16.4634 62.1849H26.5845C31.2954 62.1849 35.2579 61.3507 38.4721 59.6823C41.7109 57.9893 44.1399 55.3762 45.7593 51.843C47.4032 48.2853 48.2252 43.6971 48.2252 38.0784C48.2252 32.5087 47.4032 27.9573 45.7593 24.4242C44.1399 20.891 41.7231 18.2902 38.5089 16.6217C35.2947 14.9533 31.3322 14.1191 26.6213 14.1191H16.4634V62.1849Z" fill="black"/>
</svg>
