<svg width="40" height="40" viewBox="0 0 40 40" fill="none" xmlns="http://www.w3.org/2000/svg">
<g id="Capa_1" clip-path="url(#clip0_149_3804)">
<g id="Group">
<path id="Vector" d="M30.0366 37.2656H21.6406V36.7969C21.6406 36.4732 21.3783 36.2109 21.0547 36.2109H18.9453C18.6217 36.2109 18.3594 36.4732 18.3594 36.7969V37.2656H4.29688V36.2891C4.29688 35.9654 4.03453 35.7031 3.71094 35.7031H2.73438V21.6406H3.20312C3.52672 21.6406 3.78906 21.3784 3.78906 21.0547V18.9453C3.78906 18.6216 3.52672 18.3594 3.20312 18.3594H2.73438V4.29688H3.71094C4.03453 4.29688 4.29688 4.03461 4.29688 3.71094V2.73438H7.54164C7.86523 2.73438 8.12758 2.47211 8.12758 2.14844C8.12758 1.82477 7.86523 1.5625 7.54164 1.5625H4.29688V0.585938C4.29688 0.262266 4.03453 0 3.71094 0H0.585938C0.262344 0 0 0.262266 0 0.585938V3.71094C0 4.03461 0.262344 4.29688 0.585938 4.29688H1.5625V18.3594H1.09375C0.770156 18.3594 0.507812 18.6216 0.507812 18.9453V21.0547C0.507812 21.3784 0.770156 21.6406 1.09375 21.6406H1.5625V35.7031H0.585938C0.262344 35.7031 0 35.9654 0 36.2891V39.4141C0 39.7377 0.262344 40 0.585938 40H3.71094C4.03453 40 4.29688 39.7377 4.29688 39.4141V38.4375H18.3594V38.9062C18.3594 39.2299 18.6217 39.4922 18.9453 39.4922H21.0547C21.3783 39.4922 21.6406 39.2299 21.6406 38.9062V38.4375H30.0366C30.3602 38.4375 30.6226 38.1752 30.6226 37.8516C30.6226 37.5279 30.3602 37.2656 30.0366 37.2656ZM1.17188 1.17188H3.125V3.125H1.17188V1.17188ZM1.67969 19.5312H2.61719V20.4688H1.67969V19.5312ZM3.125 38.8281H1.17188V36.875H3.125V38.8281ZM20.4688 38.3203H19.5312V37.3828H20.4688V38.3203Z" fill="white"/>
<path id="Vector_2" d="M39.4145 4.29688C39.7381 4.29688 40.0005 4.03461 40.0005 3.71094V0.585938C40.0005 0.262266 39.7381 0 39.4145 0H36.2895C35.9659 0 35.7036 0.262266 35.7036 0.585938V1.5625H21.6411V1.09375C21.6411 0.770078 21.3788 0.507812 21.0552 0.507812H18.9458C18.6222 0.507812 18.3598 0.770078 18.3598 1.09375V1.5625H10.3594C10.0358 1.5625 9.77344 1.82477 9.77344 2.14844C9.77344 2.47211 10.0358 2.73438 10.3594 2.73438H18.3598V3.20312C18.3598 3.5268 18.6222 3.78906 18.9458 3.78906H21.0552C21.3788 3.78906 21.6411 3.5268 21.6411 3.20312V2.73438H35.7036V3.71094C35.7036 4.03461 35.9659 4.29688 36.2895 4.29688H37.2661V18.3594H36.7973C36.4738 18.3594 36.2114 18.6216 36.2114 18.9453V21.0547C36.2114 21.3784 36.4738 21.6406 36.7973 21.6406H37.2661V35.7031H36.2895C35.9659 35.7031 35.7036 35.9654 35.7036 36.2891V37.2656H32.7759C32.4523 37.2656 32.19 37.5279 32.19 37.8516C32.19 38.1752 32.4523 38.4375 32.7759 38.4375H35.7036V39.4141C35.7036 39.7377 35.9659 40 36.2895 40H39.4145C39.7381 40 40.0005 39.7377 40.0005 39.4141V36.2891C40.0005 35.9654 39.7381 35.7031 39.4145 35.7031H38.438V21.6406H38.9067C39.2303 21.6406 39.4927 21.3784 39.4927 21.0547V18.9453C39.4927 18.6216 39.2303 18.3594 38.9067 18.3594H38.438V4.29688H39.4145ZM20.4692 2.61719H19.5317V1.67969H20.4692V2.61719ZM38.8286 38.8281H36.8755V36.875H38.8286V38.8281ZM38.3208 20.4688H37.3833V19.5312H38.3208V20.4688ZM36.8755 1.17188H38.8286V3.125H36.8755V1.17188Z" fill="white"/>
<path id="Vector_3" d="M6.19381 33.2969C6.37522 33.5527 6.67061 33.7055 6.98412 33.7055H13.6916C14.3324 33.7055 14.9136 33.3018 15.138 32.7002L16.8435 28.1109H23.1674L24.8544 32.6948C25.0757 33.2994 25.6578 33.7056 26.3026 33.7056H33.0149C33.3287 33.7056 33.6241 33.553 33.8054 33.2972C33.9866 33.0415 34.0329 32.7121 33.929 32.4163L25.1276 7.32563C24.9103 6.70906 24.3254 6.29492 23.6721 6.29492C21.8351 6.29492 18.1395 6.29492 16.3269 6.29492C15.6736 6.29492 15.0887 6.70922 14.8712 7.32648L6.07014 32.4162C5.96631 32.7119 6.01256 33.0412 6.19381 33.2969ZM15.9767 7.71508C16.029 7.56656 16.1697 7.46672 16.3269 7.46672H19.8706C19.9944 7.47211 20.1092 7.52078 20.2205 7.7143L22.4289 14.0096C22.536 14.3149 22.8704 14.4757 23.1758 14.3686C23.4812 14.2615 23.6419 13.9271 23.5347 13.6217L21.3756 7.46672H23.672C23.8291 7.46672 23.9698 7.56648 24.0219 7.7143L32.7281 32.5337H30.1597C30.1512 32.4942 24.4433 16.2119 24.4433 16.2119C24.3362 15.9065 24.0016 15.7456 23.6964 15.8529C23.391 15.96 23.2303 16.2944 23.3374 16.5998L28.9267 32.5337H26.3025C26.1474 32.5337 26.0076 32.4365 25.9543 32.291L24.1258 27.3227C24.0411 27.0922 23.8215 26.9391 23.5759 26.9391H12.6348C12.39 26.9391 12.1709 27.0913 12.0856 27.3209L11.606 28.6116C11.4933 28.9149 11.6478 29.2521 11.9511 29.3649C12.2544 29.4777 12.5917 29.3231 12.7044 29.0198L13.0422 28.111H15.5933L14.0397 32.2915C13.9857 32.4364 13.8458 32.5338 13.6916 32.5338H11.3985L11.7458 31.5992C11.8586 31.2959 11.704 30.9587 11.4008 30.8459C11.0976 30.7331 10.7601 30.8877 10.6474 31.191L10.2383 32.2918C10.213 32.3599 10.1687 32.4185 10.1109 32.4611C10.0461 32.5086 9.96975 32.5338 9.8903 32.5338H7.27076L15.9767 7.71508Z" fill="white"/>
<path id="Vector_4" d="M13.9101 24.2034H22.315C22.505 24.2034 22.6831 24.1113 22.7929 23.9564C22.9028 23.8015 22.9307 23.6029 22.8679 23.4236L18.6522 11.4038C18.5697 11.1689 18.348 11.0117 18.0992 11.0117C18.099 11.0117 18.0988 11.0117 18.0986 11.0117C17.8496 11.012 17.6279 11.1696 17.5459 11.4048L13.3568 23.4247C13.2944 23.6038 13.3226 23.8022 13.4325 23.9569C13.5424 24.1116 13.7204 24.2034 13.9101 24.2034ZM18.5361 23.0316L20.0075 18.809L21.4885 23.0316H18.5361ZM18.1009 13.373L19.3849 17.034L17.2951 23.0316H14.7348L18.1009 13.373Z" fill="white"/>
</g>
</g>
<defs>
<clipPath id="clip0_149_3804">
<rect width="40" height="40" fill="white"/>
</clipPath>
</defs>
</svg>
