<svg width="188" height="41" viewBox="0 0 188 41" fill="none" xmlns="http://www.w3.org/2000/svg">
<g id="Frame 18912">
<rect width="187.636" height="40" transform="translate(0.363281 0.505859)" fill="white"/>
<g id="g10">
<g id="g12">
<path id="path14" d="M79.1977 11.2131L74.6276 25.3951L69.7684 11.2131H67.4692L62.7152 25.3951L58.0399 11.2131H54.6562L61.3825 29.8086H64.0477L66.5498 23.1064L68.6443 16.6768L70.7384 23.0792L73.2677 29.8086H75.9603L82.5806 11.2131H79.1977Z" fill="#425877"/>
<path id="path16" d="M93.9365 21.7443C93.7733 19.6192 92.223 18.5023 89.9656 18.5023C87.9257 18.5023 86.2394 19.6192 85.8044 21.7443H93.9365ZM85.75 24.1147C85.9947 26.1581 87.681 27.4929 90.1288 27.4929C91.4887 27.4929 93.2022 26.9753 94.0179 26.049L95.8403 27.8199C94.4532 29.3457 92.1412 30.1084 90.0745 30.1084C85.6686 30.1084 82.8398 27.3022 82.8398 22.9976C82.8398 18.9109 85.6957 15.9958 89.8841 15.9958C94.2085 15.9958 97.1456 18.6384 96.6291 24.1147H85.75Z" fill="#425877"/>
<path id="path18" d="M102.445 23.0519C102.445 25.6945 104.376 27.4382 106.742 27.4382C109.081 27.4382 110.985 25.749 110.985 23.0519C110.985 20.3 109.081 18.6926 106.742 18.6926C104.403 18.6926 102.445 20.4635 102.445 23.0519ZM102.282 10.7371V18.4474C103.152 16.8672 105.355 16.0498 106.987 16.0498C110.849 16.0498 113.786 18.4746 113.786 23.0519C113.786 27.4926 110.822 30.0537 106.933 30.0537C105.138 30.0537 103.342 29.3726 102.282 27.6561L102.119 29.7812H99.4805V10.7371H102.282Z" fill="#425877"/>
<path id="path20" d="M129.068 16.3497L120.61 36.0205H117.51L120.283 29.5907L114.926 16.3497H118.19L120.501 22.6978L121.834 26.512L123.275 22.7522L125.941 16.3497H129.068Z" fill="#425877"/>
<path id="path22" d="M141.582 29.7812V22.5888C141.582 20.2729 140.277 18.7199 137.965 18.7199C135.735 18.7199 134.211 20.5454 134.211 22.752V29.7812H131.41V16.3224H133.967L134.13 18.284C135.408 16.8399 136.904 16.1316 138.645 16.1316C141.908 16.1316 144.41 18.4475 144.41 22.5614V29.7812H141.582Z" fill="#425877"/>
<path id="path24" d="M150.529 28.7458C150.529 30.4623 147.945 30.4623 147.945 28.7458C147.945 27.0295 150.529 27.0295 150.529 28.7458Z" fill="#425877"/>
<path id="path26" d="M154.572 23.0519C154.572 26.2393 156.857 28.3372 159.685 28.3372C166.621 28.3372 166.621 17.7935 159.685 17.7935C156.857 17.7935 154.572 19.8914 154.572 23.0519ZM164.908 16.3223H166.621C166.621 20.8176 166.621 25.2859 166.621 29.7812H164.934V27.1112C163.765 29.1001 161.616 30.0537 159.604 30.0537C155.796 30.0537 152.75 27.3292 152.75 23.0519C152.75 18.8017 155.823 16.1315 159.631 16.1315C161.698 16.1315 163.901 17.0852 164.908 18.9923V16.3223Z" fill="#425877"/>
<path id="path28" d="M170.861 16.2678V29.7812H172.683V16.2678H170.861ZM173.091 12.0994C173.091 13.8158 170.508 13.8158 170.508 12.0994C170.508 10.3831 173.091 10.3831 173.091 12.0994Z" fill="#425877"/>
<g id="g30">
<g id="Clip path group">
<mask id="mask0_341_2088" style="mask-type:luminance" maskUnits="userSpaceOnUse" x="28" y="4" width="7" height="7">
<g id="clipPath36">
<path id="path34" d="M33.564 4.26476H29.1464C28.6146 4.26476 28.1836 4.69662 28.1836 5.22919V9.65479C28.1836 10.1873 28.6146 10.6191 29.1464 10.6191H33.564C34.0957 10.6191 34.5268 10.1873 34.5268 9.65479V5.22919C34.5268 4.69662 34.0957 4.26476 33.564 4.26476Z" fill="white"/>
</g>
</mask>
<g mask="url(#mask0_341_2088)">
<g id="g32">
<path id="path44" d="M33.564 4.26476H29.1464C28.6146 4.26476 28.1836 4.69662 28.1836 5.22919V9.65479C28.1836 10.1873 28.6146 10.6191 29.1464 10.6191H33.564C34.0957 10.6191 34.5268 10.1873 34.5268 9.65479V5.22919C34.5268 4.69662 34.0957 4.26476 33.564 4.26476Z" fill="url(#paint0_linear_341_2088)"/>
</g>
</g>
</g>
</g>
<g id="g46">
<g id="Clip path group_2">
<mask id="mask1_341_2088" style="mask-type:luminance" maskUnits="userSpaceOnUse" x="39" y="4" width="9" height="9">
<g id="clipPath52">
<path id="path50" d="M46.136 4.26634H40.1034C39.5717 4.26634 39.1406 4.6982 39.1406 5.23077V11.2738C39.1406 11.8065 39.5717 12.2383 40.1034 12.2383H46.136C46.6679 12.2383 47.0987 11.8065 47.0987 11.2738V5.23077C47.0987 4.6982 46.6679 4.26634 46.136 4.26634Z" fill="white"/>
</g>
</mask>
<g mask="url(#mask1_341_2088)">
<g id="g48">
<path id="path60" d="M46.136 4.26634H40.1034C39.5717 4.26634 39.1406 4.6982 39.1406 5.23077V11.2738C39.1406 11.8065 39.5717 12.2383 40.1034 12.2383H46.136C46.6679 12.2383 47.0987 11.8065 47.0987 11.2738V5.23077C47.0987 4.6982 46.6679 4.26634 46.136 4.26634Z" fill="url(#paint1_linear_341_2088)"/>
</g>
</g>
</g>
</g>
<g id="g62">
<g id="Clip path group_3">
<mask id="mask2_341_2088" style="mask-type:luminance" maskUnits="userSpaceOnUse" x="16" y="29" width="6" height="6">
<g id="clipPath68">
<path id="path66" d="M17.0877 34.4922H20.1492C20.681 34.4922 21.112 34.0603 21.112 33.5277V30.4608C21.112 29.9281 20.681 29.4963 20.1492 29.4963H17.0877C16.556 29.4963 16.125 29.9281 16.125 30.4608V33.5277C16.125 34.0603 16.556 34.4922 17.0877 34.4922Z" fill="white"/>
</g>
</mask>
<g mask="url(#mask2_341_2088)">
<g id="g64">
<path id="path76" d="M17.0877 34.4922H20.1492C20.681 34.4922 21.112 34.0603 21.112 33.5277V30.4608C21.112 29.9281 20.681 29.4963 20.1492 29.4963H17.0877C16.556 29.4963 16.125 29.9281 16.125 30.4608V33.5277C16.125 34.0603 16.556 34.4922 17.0877 34.4922Z" fill="url(#paint2_linear_341_2088)"/>
</g>
</g>
</g>
</g>
<g id="g78">
<g id="Clip path group_4">
<mask id="mask3_341_2088" style="mask-type:luminance" maskUnits="userSpaceOnUse" x="15" y="16" width="33" height="20">
<g id="clipPath84">
<path id="path82" d="M43.871 27.043V23.4983C43.871 22.9657 44.3018 22.5339 44.8337 22.5339C45.3654 22.5339 45.7965 22.102 45.7965 21.5694V18.5015C45.7965 17.9688 45.3654 17.5371 44.8337 17.5371H41.771C41.2393 17.5371 40.8083 17.9688 40.8083 18.5015V21.5694C40.8083 22.102 41.2393 22.5339 41.771 22.5339H41.7713C42.3029 22.5339 42.734 22.9657 42.734 23.4983V27.043C42.734 27.5757 42.3029 28.0075 41.7713 28.0075H40.5259C40.2705 28.0075 40.0256 27.9058 39.8451 27.7249L35.6262 23.4987C35.4457 23.3179 35.3442 23.0726 35.3442 22.8168V17.0139C35.3442 16.4813 34.9131 16.0494 34.3814 16.0494H28.3488C27.8171 16.0494 27.386 16.4813 27.386 17.0139V23.0569C27.386 23.5896 27.8171 24.0214 28.3488 24.0214H29.8338C30.3656 24.0214 30.7966 24.4532 30.7966 24.9858V28.6602C30.7966 29.1928 30.3656 29.6246 29.8338 29.6246H29.396C29.1407 29.6246 28.8958 29.5231 28.7153 29.3422L22.0745 22.6899C21.8939 22.509 21.7925 22.2637 21.7925 22.0079V17.8228C21.7925 17.2901 21.3615 16.8583 20.8298 16.8583H16.412C15.8803 16.8583 15.4492 17.2901 15.4492 17.8228V22.2481C15.4492 22.7807 15.8803 23.2125 16.412 23.2125H20.5898C20.8452 23.2125 21.0901 23.3142 21.2707 23.4951L27.9114 30.1474C28.092 30.3282 28.1935 30.5736 28.1935 30.8293V35.0145C28.1935 35.5472 28.6245 35.979 29.1563 35.979H33.5739C34.1056 35.979 34.5367 35.5472 34.5367 35.0145V30.5892C34.5367 30.0564 34.1056 29.6246 33.5739 29.6246H32.8962C32.3646 29.6246 31.9334 29.1928 31.9334 28.6602V24.9858C31.9334 24.4532 32.3646 24.0214 32.8962 24.0214H34.1415C34.3969 24.0214 34.6417 24.1231 34.8224 24.3039L39.0413 28.5301C39.2219 28.7111 39.3232 28.9563 39.3232 29.2121V35.015C39.3232 35.5477 39.7543 35.9795 40.286 35.9795H46.3187C46.8504 35.9795 47.2815 35.5477 47.2815 35.015V28.9719C47.2815 28.4392 46.8504 28.0075 46.3187 28.0075H44.8337C44.3018 28.0075 43.871 27.5757 43.871 27.043Z" fill="white"/>
</g>
</mask>
<g mask="url(#mask3_341_2088)">
<g id="g80">
<path id="path92" d="M43.871 27.043V23.4983C43.871 22.9657 44.3018 22.5339 44.8337 22.5339C45.3654 22.5339 45.7965 22.102 45.7965 21.5694V18.5015C45.7965 17.9688 45.3654 17.5371 44.8337 17.5371H41.771C41.2393 17.5371 40.8083 17.9688 40.8083 18.5015V21.5694C40.8083 22.102 41.2393 22.5339 41.771 22.5339H41.7713C42.3029 22.5339 42.734 22.9657 42.734 23.4983V27.043C42.734 27.5757 42.3029 28.0075 41.7713 28.0075H40.5259C40.2705 28.0075 40.0256 27.9058 39.8451 27.7249L35.6262 23.4987C35.4457 23.3179 35.3442 23.0726 35.3442 22.8168V17.0139C35.3442 16.4813 34.9131 16.0494 34.3814 16.0494H28.3488C27.8171 16.0494 27.386 16.4813 27.386 17.0139V23.0569C27.386 23.5896 27.8171 24.0214 28.3488 24.0214H29.8338C30.3656 24.0214 30.7966 24.4532 30.7966 24.9858V28.6602C30.7966 29.1928 30.3656 29.6246 29.8338 29.6246H29.396C29.1407 29.6246 28.8958 29.5231 28.7153 29.3422L22.0745 22.6899C21.8939 22.509 21.7925 22.2637 21.7925 22.0079V17.8228C21.7925 17.2901 21.3615 16.8583 20.8298 16.8583H16.412C15.8803 16.8583 15.4492 17.2901 15.4492 17.8228V22.2481C15.4492 22.7807 15.8803 23.2125 16.412 23.2125H20.5898C20.8452 23.2125 21.0901 23.3142 21.2707 23.4951L27.9114 30.1474C28.092 30.3282 28.1935 30.5736 28.1935 30.8293V35.0145C28.1935 35.5472 28.6245 35.979 29.1563 35.979H33.5739C34.1056 35.979 34.5367 35.5472 34.5367 35.0145V30.5892C34.5367 30.0564 34.1056 29.6246 33.5739 29.6246H32.8962C32.3646 29.6246 31.9334 29.1928 31.9334 28.6602V24.9858C31.9334 24.4532 32.3646 24.0214 32.8962 24.0214H34.1415C34.3969 24.0214 34.6417 24.1231 34.8224 24.3039L39.0413 28.5301C39.2219 28.7111 39.3232 28.9563 39.3232 29.2121V35.015C39.3232 35.5477 39.7543 35.9795 40.286 35.9795H46.3187C46.8504 35.9795 47.2815 35.5477 47.2815 35.015V28.9719C47.2815 28.4392 46.8504 28.0075 46.3187 28.0075H44.8337C44.3018 28.0075 43.871 27.5757 43.871 27.043Z" fill="url(#paint3_linear_341_2088)"/>
</g>
</g>
</g>
</g>
</g>
</g>
</g>
<defs>
<linearGradient id="paint0_linear_341_2088" x1="24.2364" y1="-0.331128" x2="43.2201" y2="20.3252" gradientUnits="userSpaceOnUse">
<stop stop-color="#63C3F0"/>
<stop offset="1" stop-color="#995AB3"/>
</linearGradient>
<linearGradient id="paint1_linear_341_2088" x1="30.2228" y1="-5.8297" x2="49.2066" y2="14.8266" gradientUnits="userSpaceOnUse">
<stop stop-color="#63C3F0"/>
<stop offset="1" stop-color="#995AB3"/>
</linearGradient>
<linearGradient id="paint2_linear_341_2088" x1="5.11785" y1="17.2529" x2="24.1016" y2="37.9092" gradientUnits="userSpaceOnUse">
<stop stop-color="#63C3F0"/>
<stop offset="1" stop-color="#995AB3"/>
</linearGradient>
<linearGradient id="paint3_linear_341_2088" x1="24.0867" y1="9.52478" x2="37.3841" y2="31.5222" gradientUnits="userSpaceOnUse">
<stop stop-color="#5DC7AA"/>
<stop offset="1" stop-color="#4D7DC8"/>
</linearGradient>
</defs>
</svg>
