<svg width="40" height="40" viewBox="0 0 40 40" fill="none" xmlns="http://www.w3.org/2000/svg">
<g id="Frame">
<g id="Icon">
<path id="Vector" fill-rule="evenodd" clip-rule="evenodd" d="M0.417969 31.6663V8.33301C0.417969 4.88134 3.2163 2.08301 6.66797 2.08301H33.3346C36.7863 2.08301 39.5846 4.88134 39.5846 8.33301V31.6663C39.5846 35.118 36.7863 37.9163 33.3346 37.9163H6.66797C5.00964 37.9163 3.4213 37.258 2.24797 36.0863C1.0763 34.913 0.417969 33.3247 0.417969 31.6663ZM2.91797 14.583V31.6663C2.91797 32.6613 3.31297 33.6147 4.0163 34.318C4.71964 35.0213 5.67297 35.4163 6.66797 35.4163H33.3346C35.4063 35.4163 37.0846 33.738 37.0846 31.6663V14.583H2.91797ZM18.3346 6.66634C17.4146 6.66634 16.668 7.41301 16.668 8.33301C16.668 9.25301 17.4146 9.99967 18.3346 9.99967C19.2546 9.99967 20.0013 9.25301 20.0013 8.33301C20.0013 7.41301 19.2546 6.66634 18.3346 6.66634ZM13.3346 6.66634C12.4146 6.66634 11.668 7.41301 11.668 8.33301C11.668 9.25301 12.4146 9.99967 13.3346 9.99967C14.2546 9.99967 15.0013 9.25301 15.0013 8.33301C15.0013 7.41301 14.2546 6.66634 13.3346 6.66634ZM8.33464 6.66634C7.41464 6.66634 6.66797 7.41301 6.66797 8.33301C6.66797 9.25301 7.41464 9.99967 8.33464 9.99967C9.25464 9.99967 10.0013 9.25301 10.0013 8.33301C10.0013 7.41301 9.25464 6.66634 8.33464 6.66634Z" fill="#F1F1F1"/>
<path id="Vector_2" fill-rule="evenodd" clip-rule="evenodd" d="M14.5846 27.0827C15.0263 27.0827 15.4513 26.9077 15.763 26.5943C16.0763 26.2827 16.2513 25.8577 16.2513 25.416V21.666C16.2513 20.976 16.8113 20.416 17.5013 20.416C18.1913 20.416 18.7513 20.976 18.7513 21.666V25.416C18.7513 26.521 18.313 27.581 17.5313 28.3627C16.7496 29.1443 15.6896 29.5827 14.5846 29.5827C13.4796 29.5827 12.4196 29.1443 11.638 28.3627C10.8563 27.581 10.418 26.521 10.418 25.416V21.666C10.418 20.976 10.978 20.416 11.668 20.416C12.358 20.416 12.918 20.976 12.918 21.666V25.416C12.918 25.8577 13.093 26.2827 13.4063 26.5943C13.718 26.9077 14.143 27.0827 14.5846 27.0827Z" fill="#F1F1F1"/>
<path id="Vector_3" fill-rule="evenodd" clip-rule="evenodd" d="M20.7842 22.5499C20.2959 22.0632 20.2959 21.2699 20.7842 20.7832C21.2709 20.2949 22.0642 20.2949 22.5509 20.7832L29.2176 27.4499C29.7059 27.9366 29.7059 28.7299 29.2176 29.2166C28.7309 29.7049 27.9376 29.7049 27.4509 29.2166L20.7842 22.5499Z" fill="#F1F1F1"/>
<path id="Vector_4" fill-rule="evenodd" clip-rule="evenodd" d="M27.4509 20.7832C27.9376 20.2949 28.7309 20.2949 29.2176 20.7832C29.7059 21.2699 29.7059 22.0632 29.2176 22.5499L22.5509 29.2166C22.0642 29.7049 21.2709 29.7049 20.7842 29.2166C20.2959 28.7299 20.2959 27.9366 20.7842 27.4499L27.4509 20.7832Z" fill="#F1F1F1"/>
</g>
</g>
</svg>
