<svg width="65" height="64" viewBox="0 0 65 64" fill="none" xmlns="http://www.w3.org/2000/svg">
<g id="Frame 13929">
<rect x="0.667969" width="64" height="64" rx="8" fill="#57EFA6"/>
<path id="Vector" fill-rule="evenodd" clip-rule="evenodd" d="M51.0861 49H42.8538H36.4134H30.0096H23.9919H13.914C13.409 49 13 48.584 13 48.0705V23.1294V15.9295C13 15.416 13.409 15 13.914 15H51.086C51.591 15 52 15.416 52 15.9295V23.1294V48.0708C52 48.584 51.5911 49 51.0861 49ZM36.2537 32.3813L38.7642 26.6404C38.9106 26.3061 39.236 26.0902 39.5958 26.0888C39.9541 26.0888 40.2836 26.3018 40.4318 26.6339L42.9982 32.3799C42.9506 32.3762 42.9024 32.3741 42.8538 32.3741H36.4134C36.3596 32.3741 36.3063 32.3766 36.2537 32.3813ZM35.4993 47.1414V34.233C35.4993 33.7195 35.9084 33.3035 36.4134 33.3035H42.8539C43.3588 33.3035 43.7679 33.7195 43.7679 34.233V47.1414H50.172V24.0589H14.8282V47.1414H23.078V43.9488C23.0771 43.8966 23.0806 43.8441 23.0885 43.7918L23.4077 41.689C24.2143 41.993 25.1046 42.1241 25.9894 42.1241C27.1212 42.1241 28.2703 41.9286 29.3642 41.6426C29.7914 41.5309 30.1909 41.3842 30.5611 41.205L30.9131 43.7913L30.9163 43.815L30.9196 43.8451C30.9228 43.8794 30.9242 43.9135 30.9237 43.9476V47.1414L35.4993 47.1414ZM25.9893 41.1948C23.8781 41.1948 22.3302 40.4089 21.6309 38.9825C20.7071 37.0971 21.3796 34.4661 23.5249 31.5736C24.3872 30.4107 25.3983 28.6844 25.3186 27.0652C25.3028 26.7418 25.4532 26.4332 25.7163 26.251C25.9794 26.0687 26.3168 26.0383 26.6066 26.1711C30.136 27.786 33.0619 32.6693 32.7461 36.4165C32.5579 38.6466 31.2762 40.1828 29.1365 40.7424C27.9887 41.0424 26.9297 41.1948 25.9893 41.1948ZM25.7668 37.7596C26.9577 37.7596 28.6132 37.438 29.3721 36.3985C29.5226 36.1923 29.4802 35.9013 29.2774 35.7483C29.0744 35.5951 28.7884 35.6387 28.6377 35.8448C28.0233 36.6854 26.3212 36.8954 25.3686 36.8138C25.1188 36.7924 24.8931 36.9805 24.8709 37.2354C24.8487 37.49 25.035 37.7174 25.2855 37.7399C25.4452 37.7542 25.6064 37.7596 25.7668 37.7596ZM26.2547 19.9942C26.5074 19.9942 26.7118 19.7863 26.7118 19.5293C26.7118 19.2723 26.5075 19.0645 26.2547 19.0645H24.4912C24.2384 19.0645 24.0341 19.2723 24.0341 19.5293C24.0341 19.7864 24.2384 19.9942 24.4912 19.9942H26.2547ZM19.7895 19.9942C20.0421 19.9942 20.2466 19.7862 20.2466 19.5293C20.2466 19.2723 20.0423 19.0645 19.7895 19.0645H18.0262C17.7734 19.0645 17.5691 19.2723 17.5691 19.5293C17.5691 19.7864 17.7734 19.9942 18.0262 19.9942H19.7895Z" fill="white"/>
</g>
</svg>
