<svg width="153" height="32" viewBox="0 0 153 32" fill="none" xmlns="http://www.w3.org/2000/svg">
<g id="quickprism_logo 1 1" clip-path="url(#clip0_341_2137)">
<g id="Group">
<g id="Group_2">
<path id="Vector" d="M41.5039 22.7708C40.4517 22.7708 39.5023 22.5125 38.6573 21.9943C37.8124 21.4762 37.1509 20.7713 36.6715 19.8765C36.1936 18.9834 35.9531 17.9797 35.9531 16.8655C35.9531 15.7358 36.1921 14.7244 36.6715 13.8312C37.1494 12.938 37.8108 12.2316 38.6573 11.715C39.5023 11.1968 40.4517 10.9385 41.5039 10.9385C42.3331 10.9385 43.0752 11.1034 43.7287 11.4318C44.3822 11.7616 44.9044 12.2191 45.2952 12.8073C45.686 13.3955 45.8965 14.0584 45.9297 14.7944V18.8869C45.8981 19.64 45.686 20.306 45.2952 20.8864C44.9044 21.4668 44.3822 21.9259 43.7287 22.262C43.0736 22.6028 42.3331 22.7708 41.5039 22.7708ZM42.0767 19.9248C42.9533 19.9248 43.6638 19.6385 44.205 19.0658C44.7477 18.4932 45.0183 17.7525 45.0183 16.8422C45.0183 16.2462 44.8949 15.7172 44.648 15.255C44.4012 14.7929 44.0578 14.4319 43.6195 14.1735C43.1812 13.9152 42.6669 13.7861 42.0767 13.7861C41.5023 13.7861 40.996 13.9152 40.5577 14.1735C40.1194 14.4319 39.776 14.7929 39.5292 15.255C39.2823 15.7172 39.1589 16.2478 39.1589 16.8422C39.1589 17.4537 39.2823 17.9906 39.5292 18.4543C39.776 18.9164 40.1194 19.2774 40.5577 19.5358C40.9976 19.7956 41.5039 19.9248 42.0767 19.9248ZM44.8521 27.2881V19.6665L45.3537 16.9138L44.8521 14.1611V11.1734H47.9614V27.2865H44.8521V27.2881Z" fill="#277289"/>
<path id="Vector_2" d="M55.6649 22.7712C54.6443 22.7712 53.7392 22.5596 52.9496 22.1363C52.16 21.7131 51.5413 21.1249 51.0951 20.3718C50.6489 19.6186 50.4258 18.7488 50.4258 17.7607V11.1738H53.5825V17.6906C53.5825 18.1606 53.6616 18.5652 53.8215 18.9028C53.9813 19.2405 54.2202 19.4957 54.5398 19.6669C54.8595 19.8396 55.2329 19.9252 55.6649 19.9252C56.3184 19.9252 56.8295 19.7291 57.1966 19.337C57.5637 18.9448 57.7472 18.3955 57.7472 17.6906V11.1738H60.8802V17.7607C60.8802 18.7643 60.6603 19.642 60.222 20.3951C59.7837 21.1482 59.1697 21.7318 58.3801 22.1472C57.5906 22.5627 56.6855 22.7712 55.6649 22.7712Z" fill="#277289"/>
<path id="Vector_3" d="M64.9448 9.33873C64.4337 9.33873 64.0113 9.17068 63.6774 8.83301C63.3419 8.49535 63.1758 8.07676 63.1758 7.57415C63.1758 7.08866 63.3435 6.67319 63.6774 6.32774C64.0128 5.98229 64.4353 5.80957 64.9448 5.80957C65.4717 5.80957 65.8974 5.98229 66.2249 6.32774C66.5509 6.67319 66.7154 7.08866 66.7154 7.57415C66.7154 8.07676 66.5509 8.49535 66.2249 8.83301C65.8974 9.17068 65.4702 9.33873 64.9448 9.33873ZM63.3657 22.5358V11.1733H66.524V22.5358H63.3657Z" fill="#277289"/>
<path id="Vector_4" d="M74.7553 22.7707C73.5749 22.7707 72.5147 22.5124 71.5732 21.9942C70.6317 21.4761 69.8912 20.7712 69.3485 19.8764C68.8057 18.9833 68.5352 17.9796 68.5352 16.8654C68.5352 15.7357 68.8057 14.7243 69.3485 13.8311C69.8912 12.9379 70.6365 12.2284 71.5843 11.7024C72.5337 11.1765 73.5891 10.915 74.7537 10.915C75.6635 10.915 76.5006 11.08 77.2649 11.4099C78.0307 11.7398 78.6921 12.2097 79.2507 12.8212L77.2411 14.8208C76.9373 14.4909 76.575 14.2404 76.1525 14.0676C75.73 13.8949 75.2632 13.8093 74.7537 13.8093C74.1793 13.8093 73.6651 13.9385 73.2109 14.1968C72.7568 14.4551 72.3976 14.8083 72.135 15.2549C71.8723 15.7015 71.741 16.2306 71.741 16.8421C71.741 17.4381 71.8723 17.9671 72.135 18.4293C72.3976 18.8914 72.7568 19.2525 73.2109 19.5108C73.6651 19.7691 74.1793 19.8982 74.7537 19.8982C75.2806 19.8982 75.7537 19.808 76.1778 19.6275C76.6003 19.447 76.9626 19.184 77.2664 18.8401L79.2997 20.8396C78.7095 21.4667 78.0323 21.946 77.2664 22.2743C76.5006 22.6058 75.6635 22.7707 74.7553 22.7707Z" fill="#277289"/>
<path id="Vector_5" d="M81.0664 22.5362V5.52832H84.1994V22.5362H81.0664ZM88.4353 22.5362L83.9621 16.6791L88.4116 11.1753H92.024L86.8087 17.3856L86.9289 15.8793L92.263 22.5362H88.4353Z" fill="#277289"/>
<path id="Vector_6" d="M93.3164 27.2887V11.174H96.4494V14.1617L95.9225 16.9144L96.4257 19.667V27.2887H93.3164ZM99.7264 22.7714C98.8973 22.7714 98.1473 22.6033 97.4779 22.2657C96.8086 21.928 96.2738 21.4705 95.875 20.8901C95.4763 20.3097 95.2611 19.6437 95.2294 18.8906V14.8681C95.2611 14.115 95.481 13.4443 95.8877 12.8561C96.2943 12.2679 96.8292 11.8011 97.4906 11.4557C98.152 11.1102 98.8973 10.9375 99.728 10.9375C100.796 10.9375 101.753 11.1958 102.598 11.714C103.443 12.2322 104.109 12.937 104.595 13.8302C105.081 14.725 105.325 15.7364 105.325 16.8646C105.325 17.9787 105.081 18.9824 104.595 19.8756C104.108 20.7703 103.443 21.4752 102.598 21.9934C101.752 22.5131 100.794 22.7714 99.7264 22.7714ZM99.1773 19.9254C99.7517 19.9254 100.261 19.7962 100.709 19.5379C101.155 19.2796 101.502 18.9186 101.75 18.4564C101.997 17.9943 102.12 17.4559 102.12 16.8443C102.12 16.2484 101.997 15.7193 101.75 15.2571C101.503 14.795 101.155 14.434 100.709 14.1757C100.263 13.9174 99.7517 13.7882 99.1773 13.7882C98.6188 13.7882 98.1172 13.9174 97.671 14.1757C97.2248 14.434 96.8782 14.795 96.6298 15.2571C96.383 15.7193 96.2595 16.2499 96.2595 16.8443C96.2595 17.4559 96.383 17.9927 96.6298 18.4564C96.8766 18.9186 97.22 19.2796 97.6583 19.5379C98.0966 19.7962 98.603 19.9254 99.1773 19.9254Z" fill="#277289"/>
<path id="Vector_7" d="M107.383 22.5363V11.1738H110.516V22.5363H107.383ZM110.516 16.256L109.296 15.4561C109.44 14.0603 109.854 12.9587 110.54 12.1511C111.225 11.3435 112.214 10.9404 113.506 10.9404C114.065 10.9404 114.567 11.0307 115.013 11.2112C115.459 11.3917 115.866 11.6858 116.233 12.0935L114.271 14.3046C114.095 14.1164 113.883 13.9748 113.636 13.8814C113.389 13.7865 113.106 13.7398 112.786 13.7398C112.117 13.7398 111.57 13.9483 111.147 14.3638C110.728 14.7777 110.516 15.4079 110.516 16.256Z" fill="#277289"/>
<path id="Vector_8" d="M118.911 9.33873C118.4 9.33873 117.978 9.17068 117.644 8.83301C117.308 8.49535 117.141 8.07676 117.141 7.57415C117.141 7.08866 117.308 6.67319 117.644 6.32774C117.979 5.98229 118.402 5.80957 118.911 5.80957C119.438 5.80957 119.864 5.98229 120.191 6.32774C120.517 6.67319 120.682 7.08866 120.682 7.57415C120.682 8.07676 120.519 8.49535 120.191 8.83301C119.865 9.17068 119.438 9.33873 118.911 9.33873ZM117.334 22.5358V11.1733H120.492V22.5358H117.334Z" fill="#277289"/>
<path id="Vector_9" d="M127.235 22.7944C126.581 22.7944 125.939 22.7088 125.309 22.5361C124.679 22.3633 124.102 22.1237 123.575 21.8187C123.048 21.5122 122.594 21.1403 122.211 20.7015L124.077 18.8435C124.475 19.2823 124.937 19.6122 125.464 19.8316C125.991 20.051 126.572 20.1615 127.211 20.1615C127.721 20.1615 128.108 20.0915 128.371 19.9499C128.634 19.8083 128.765 19.5966 128.765 19.315C128.765 19.0007 128.626 18.7579 128.346 18.5852C128.067 18.4125 127.703 18.2678 127.257 18.1495C126.811 18.0312 126.344 17.899 125.858 17.7496C125.371 17.6002 124.906 17.4041 124.459 17.1614C124.013 16.9187 123.649 16.581 123.371 16.15C123.092 15.7189 122.951 15.1587 122.951 14.4678C122.951 13.7474 123.13 13.1187 123.489 12.5866C123.849 12.0528 124.363 11.6374 125.032 11.3401C125.702 11.0429 126.491 10.8936 127.401 10.8936C128.358 10.8936 129.222 11.0585 129.996 11.3884C130.77 11.7183 131.411 12.2115 131.922 12.8698L130.034 14.7262C129.683 14.3029 129.289 13.9964 128.85 13.8081C128.412 13.6198 127.937 13.5264 127.428 13.5264C126.966 13.5264 126.61 13.5964 126.363 13.738C126.116 13.8797 125.993 14.0757 125.993 14.3262C125.993 14.6079 126.132 14.8289 126.41 14.9845C126.689 15.1416 127.053 15.2786 127.499 15.3968C127.945 15.5151 128.412 15.6473 128.898 15.7967C129.384 15.9461 129.846 16.1531 130.286 16.4207C130.724 16.6868 131.083 17.04 131.362 17.4788C131.64 17.9176 131.781 18.4825 131.781 19.1718C131.781 20.286 131.374 21.1683 130.561 21.8187C129.746 22.4692 128.638 22.7944 127.235 22.7944Z" fill="#277289"/>
<path id="Vector_10" d="M133.887 22.5363V11.1738H137.02V22.5363H133.887ZM141.422 22.5363V15.8312C141.422 15.1729 141.21 14.6594 140.787 14.2906C140.365 13.9219 139.843 13.7382 139.221 13.7382C138.806 13.7382 138.431 13.8207 138.096 13.9857C137.76 14.1506 137.498 14.3902 137.306 14.703C137.115 15.0173 137.02 15.3939 137.02 15.8327L135.8 15.2445C135.8 14.3669 135.994 13.606 136.385 12.9633C136.776 12.3207 137.306 11.8227 137.975 11.4695C138.645 11.1163 139.403 10.9404 140.248 10.9404C141.045 10.9404 141.77 11.1163 142.425 11.4695C143.078 11.8227 143.597 12.316 143.98 12.9509C144.363 13.5857 144.555 14.3513 144.555 15.2445V22.5363H141.422ZM148.957 22.5363V15.8312C148.957 15.1729 148.745 14.6594 148.322 14.2906C147.9 13.9219 147.378 13.7382 146.756 13.7382C146.357 13.7382 145.987 13.8207 145.643 13.9857C145.3 14.1506 145.034 14.3902 144.843 14.703C144.651 15.0173 144.556 15.3939 144.556 15.8327L142.762 15.4095C142.825 14.4992 143.074 13.7118 143.504 13.0458C143.934 12.3798 144.501 11.8616 145.202 11.4928C145.903 11.124 146.685 10.9404 147.545 10.9404C148.406 10.9404 149.18 11.1163 149.865 11.4695C150.55 11.8227 151.093 12.3284 151.492 12.9867C151.89 13.6449 152.09 14.4291 152.09 15.3394V22.5378H148.957V22.5363Z" fill="#277289"/>
</g>
<g id="Group_3">
<path id="Vector_11" d="M20.9412 31.7842L5.05151 28.602C1.69697 27.9298 -0.467653 24.7119 0.215913 21.4145L3.45019 5.7885C4.13376 2.48964 7.40601 0.360935 10.759 1.03316L26.6487 4.21532C30.0032 4.88754 32.1679 8.10549 31.4843 11.4028L28.2484 27.0288C27.5665 30.3261 24.2942 32.4564 20.9412 31.7842Z" fill="#898989"/>
<path id="Vector_12" d="M23.9606 30.4751H7.74485C4.32228 30.4751 1.54688 27.7473 1.54688 24.38V8.43496C1.54688 5.06919 4.32228 2.33984 7.74485 2.33984H23.9606C27.3831 2.33984 30.1585 5.06763 30.1585 8.43496V24.3816C30.1569 27.7473 27.3831 30.4751 23.9606 30.4751Z" fill="#277289"/>
<g id="Group_4">
<path id="Vector_13" d="M15.6366 14.2442L15.5195 9.28809" stroke="white" stroke-width="0.674959" stroke-miterlimit="10"/>
<path id="Vector_14" d="M19.3359 20.3877L23.9168 22.8447" stroke="white" stroke-width="0.674959" stroke-miterlimit="10"/>
<path id="Vector_15" d="M7.73047 23.2727L12.4284 20.4531" stroke="white" stroke-width="0.674959" stroke-miterlimit="10"/>
<path id="Vector_16" d="M8.34316 24.6732L23.4449 24.3122C24.8104 24.2795 25.6269 22.8059 24.9149 21.6607L17.046 8.97871C16.3355 7.83344 14.6282 7.8739 13.9747 9.05185L6.74184 22.0948C6.08993 23.2728 6.97761 24.7059 8.34316 24.6732Z" stroke="white" stroke-width="2.19364" stroke-miterlimit="10"/>
<path id="Vector_17" d="M11.4062 21.0651L20.204 20.855L15.62 13.4668L11.4062 21.0651Z" fill="white"/>
</g>
</g>
</g>
</g>
<defs>
<clipPath id="clip0_341_2137">
<rect width="152" height="31" fill="white" transform="translate(0.0898438 0.908203)"/>
</clipPath>
</defs>
</svg>