<svg width="142" height="41" viewBox="0 0 142 41" fill="none" xmlns="http://www.w3.org/2000/svg">
<g id="Frame 18915">
<rect width="141.091" height="40" transform="translate(0.636719 0.505859)" fill="white"/>
<g id="Group 1">
<g id="Mask group">
<mask id="mask0_341_2159" style="mask-type:luminance" maskUnits="userSpaceOnUse" x="10" y="3" width="22" height="34">
<g id="Group">
<path id="Vector" d="M10.0039 3.87793H31.4519V36.5264H10.0039V3.87793Z" fill="white"/>
</g>
</mask>
<g mask="url(#mask0_341_2159)">
<g id="Group_2">
<path id="Vector_2" d="M18.4475 5.50879L29.8584 16.7787C30.0891 17.0067 30.2942 17.2527 30.4737 17.5204C30.6551 17.7863 30.8071 18.0686 30.9316 18.3652C31.0562 18.6601 31.1496 18.9659 31.2137 19.2806C31.276 19.5954 31.3071 19.9137 31.3071 20.2339C31.3071 20.5559 31.276 20.8725 31.2137 21.1872C31.1496 21.502 31.0562 21.8078 30.9316 22.1044C30.8071 22.4011 30.6551 22.6815 30.4737 22.9491C30.2942 23.2151 30.0891 23.4629 29.8584 23.689L18.4475 34.9591C15.332 38.0379 10.0002 35.8564 10.0039 31.5003V8.96037C10.0002 4.61151 15.332 2.43166 18.4475 5.50879Z" fill="#3871C1"/>
</g>
</g>
</g>
<g id="Mask group_2">
<mask id="mask1_341_2159" style="mask-type:luminance" maskUnits="userSpaceOnUse" x="10" y="3" width="22" height="26">
<g id="Group_3">
<path id="Vector_3" d="M10.0039 3.87793H31.4519V28.7351H10.0039V3.87793Z" fill="white"/>
</g>
</mask>
<g mask="url(#mask1_341_2159)">
<g id="Group_4">
<path id="Vector_4" d="M18.4458 5.50902C15.3467 2.44822 10.0772 4.58823 10.0039 8.88824C10.0039 8.88824 27.9609 25.6684 25.1055 28.4036L29.8676 23.7001C30.0965 23.4722 30.3017 23.2263 30.4831 22.9585C30.6625 22.6926 30.8163 22.4103 30.9391 22.1137C31.0636 21.8188 31.1588 21.5131 31.2211 21.1983C31.2853 20.8835 31.3163 20.5653 31.3163 20.245C31.3163 19.923 31.2853 19.6065 31.2211 19.2917C31.1588 18.9769 31.0636 18.6712 30.9391 18.3746C30.8163 18.0778 30.6625 17.7974 30.4831 17.5296C30.3017 17.2637 30.0965 17.016 29.8676 16.7899L18.4458 5.50902Z" fill="#0091F7"/>
</g>
</g>
</g>
<path id="Vector_5" d="M44.0636 16.8079L32.6526 5.53615C29.5884 2.50787 21.4232 6.02097 24.2182 8.77968L32.4237 16.8876C32.6526 17.1136 32.8577 17.3614 33.0392 17.6273C33.2205 17.8932 33.3724 18.1755 33.497 18.4722C33.6216 18.7688 33.7151 19.0728 33.7791 19.3875C33.8413 19.7023 33.8744 20.0207 33.8744 20.3408C33.8744 20.6611 33.8413 20.9794 33.7791 21.2941C33.7151 21.6089 33.6216 21.9147 33.497 22.2113C33.3724 22.5062 33.2205 22.7884 33.0392 23.0543C32.8577 23.3221 32.6526 23.568 32.4237 23.7942L24.2236 31.8966C21.7218 34.3641 29.6196 38.0037 32.6526 35.0081L44.0636 23.7362C44.2943 23.5102 44.5013 23.2624 44.6826 22.9965C44.8639 22.7287 45.0178 22.4465 45.1424 22.1481C45.2687 21.8513 45.3622 21.5439 45.4262 21.2291C45.4903 20.9125 45.5215 20.5941 45.5215 20.2721C45.5215 19.95 45.4903 19.6318 45.4262 19.3152C45.3622 19.0004 45.2687 18.6928 45.1424 18.3962C45.0178 18.0978 44.8639 17.8155 44.6826 17.5496C44.5013 17.2819 44.2943 17.034 44.0636 16.8079Z" fill="#F54E15"/>
<path id="Vector_6" d="M44.0636 16.8079L32.6526 5.53615C29.5884 2.50787 21.4232 6.02097 24.2182 8.77968L32.4237 16.8876C32.8194 17.2782 33.1398 17.7232 33.3817 18.2207C33.6253 18.7182 33.7772 19.2428 33.8395 19.7927C36.6657 23.0705 39.0175 26.2544 39.5065 28.237L44.0708 23.7291C44.3016 23.503 44.5067 23.2551 44.6881 22.9873C44.8694 22.7196 45.0214 22.4375 45.1459 22.1407C45.2705 21.8441 45.3639 21.5384 45.428 21.2218C45.4903 20.907 45.5232 20.5887 45.5215 20.2666C45.5215 19.9447 45.4903 19.6263 45.4262 19.3115C45.3622 18.9967 45.2668 18.691 45.1424 18.3926C45.0159 18.0959 44.8639 17.8137 44.6826 17.5478C44.4994 17.28 44.2943 17.034 44.0636 16.8079Z" fill="#FF914D"/>
<path id="Vector_7" d="M64.124 12.7061C64.1478 12.8708 64.1698 13.0788 64.1899 13.3284C64.2137 13.5798 64.2265 13.8096 64.2265 14.0158C64.2265 14.5566 64.1789 14.9619 64.0874 15.2315C63.9995 15.5028 63.842 15.691 63.6185 15.7958C63.3931 15.8972 63.0543 15.9477 62.6001 15.9477H59.6329V27.7568C59.5047 27.7803 59.2758 27.8075 58.9443 27.8365C58.6163 27.8653 58.3252 27.8798 58.0724 27.8798C57.3984 27.8798 56.902 27.8328 56.5851 27.7423C56.2664 27.6519 56.0522 27.4945 55.9405 27.272C55.8269 27.0514 55.772 26.6986 55.772 26.2156V15.9477H51.2661C51.2369 15.7995 51.2094 15.5986 51.1856 15.3472C51.1655 15.0976 51.1562 14.8606 51.1562 14.6381C51.1562 14.099 51.2021 13.6938 51.2955 13.4224C51.3872 13.1529 51.5465 12.9666 51.7717 12.8653C51.9952 12.7604 52.3249 12.7061 52.7607 12.7061H64.124Z" fill="#141E3F"/>
<path id="Vector_8" d="M78.2401 25.2393C78.2695 25.375 78.2933 25.5052 78.3134 25.63C78.3318 25.7567 78.3428 25.8888 78.3428 26.028C78.3428 26.7227 78.1468 27.2292 77.7567 27.5476C77.546 27.7104 77.2896 27.8189 76.9874 27.8732C76.6833 27.9311 76.3426 27.9599 75.9616 27.9599C75.3463 27.9599 74.8334 27.8677 74.4232 27.685C74.0165 27.4969 73.7143 27.1749 73.5147 26.7154C73.0933 27.146 72.5989 27.4716 72.0275 27.6923C71.4596 27.9129 70.8479 28.0251 70.1885 28.0251C69.2892 28.0251 68.4632 27.7954 67.7122 27.3377C66.9593 26.8801 66.3604 26.2126 65.9172 25.3334C65.4776 24.4507 65.2578 23.3995 65.2578 22.1785C65.2578 20.9447 65.4886 19.8829 65.9538 18.9948C66.4173 18.1028 67.0308 17.4281 67.7927 16.9686C68.5584 16.511 69.3991 16.2812 70.313 16.2812C70.8882 16.2812 71.4412 16.3826 71.9688 16.5852C72.4963 16.7877 72.9615 17.0827 73.3681 17.468C73.5092 17.097 73.7491 16.8294 74.0861 16.6647C74.4231 16.4965 74.9012 16.4115 75.5221 16.4115C75.7602 16.4115 76.0129 16.426 76.2768 16.455C76.5442 16.4802 76.7694 16.5055 76.9508 16.5345V24.3638C76.9508 24.7111 76.9984 24.9571 77.0973 25.1019C77.1998 25.2466 77.3904 25.3189 77.6687 25.3189C77.8922 25.3189 78.0826 25.2936 78.2401 25.2393ZM69.009 22.1568C69.009 22.7501 69.1079 23.2675 69.3093 23.7053C69.5145 24.1449 69.8001 24.4758 70.1664 24.6966C70.5329 24.9191 70.9394 25.0295 71.3901 25.0295C71.7417 25.0295 72.0714 24.9752 72.3791 24.863C72.6868 24.7527 72.9671 24.5935 73.2216 24.3855V19.9281C72.6887 19.4994 72.0714 19.2842 71.368 19.2842C70.9028 19.2842 70.4963 19.3962 70.1445 19.617C69.7929 19.8395 69.5145 20.1705 69.3093 20.6083C69.1079 21.0424 69.009 21.5599 69.009 22.1568Z" fill="#141E3F"/>
<path id="Vector_9" d="M86.8798 16.2812C87.8067 16.2812 88.6474 16.4983 89.4002 16.9325C90.1511 17.3629 90.7483 18.0178 91.1879 18.9006C91.631 19.7798 91.8545 20.858 91.8545 22.1351C91.8545 23.3852 91.6219 24.4507 91.1585 25.3334C90.6988 26.2126 90.0706 26.8801 89.2757 27.3377C88.4789 27.7954 87.5905 28.0251 86.6088 28.0251C86.0758 28.0251 85.5777 27.9546 85.1143 27.8152C84.6491 27.676 84.235 27.4896 83.8687 27.2582V31.4405C83.6966 31.4694 83.4768 31.4929 83.2094 31.5129C82.9457 31.5309 82.6929 31.5417 82.4548 31.5417C81.8632 31.5417 81.4071 31.4857 81.0847 31.3754C80.7624 31.2632 80.5279 31.0679 80.3814 30.7893C80.2349 30.5142 80.1616 30.1055 80.1616 29.5664V19.9933C80.1616 19.6568 80.1048 19.4144 79.9932 19.2697C79.8796 19.125 79.6817 19.0526 79.3997 19.0526C79.189 19.0526 79.0133 19.0743 78.8721 19.1177C78.8026 18.8971 78.7695 18.6312 78.7695 18.3217C78.7695 17.656 78.9564 17.1785 79.3337 16.8891C79.7293 16.5707 80.3264 16.4115 81.1287 16.4115C81.7477 16.4115 82.2606 16.5055 82.6672 16.6937C83.072 16.8783 83.3743 17.1857 83.5757 17.6198C83.9805 17.1857 84.4658 16.8564 85.0336 16.6285C85.605 16.397 86.2205 16.2812 86.8798 16.2812ZM85.7224 25.0295C86.1857 25.0295 86.5961 24.9191 86.9531 24.6966C87.314 24.4758 87.5942 24.1449 87.7958 23.7053C88.0009 23.2675 88.1033 22.7501 88.1033 22.1568C88.1033 21.5454 88.0009 21.0244 87.7958 20.5938C87.5942 20.1651 87.314 19.8395 86.9531 19.617C86.5961 19.3962 86.1857 19.2842 85.7224 19.2842C85.356 19.2842 85.0135 19.3402 84.6967 19.4506C84.3834 19.5628 84.1069 19.7219 83.8687 19.9281V24.3638C84.4146 24.8088 85.0336 25.0295 85.7224 25.0295Z" fill="#141E3F"/>
<path id="Vector_10" d="M105.999 19.0311C106.589 19.0311 107.058 19.0943 107.406 19.2192C107.758 19.3459 108.021 19.5738 108.197 19.9066C108.373 20.2395 108.461 20.7135 108.461 21.3249C108.461 22.6853 108.164 23.8701 107.574 24.8776C106.988 25.8816 106.149 26.6577 105.062 27.2077C103.972 27.7522 102.702 28.0253 101.252 28.0253C99.596 28.0253 98.1821 27.7287 97.0098 27.1353C95.8376 26.5383 94.9401 25.6556 94.3211 24.487C93.7002 23.3201 93.3906 21.9037 93.3906 20.2395C93.3906 18.615 93.7276 17.2076 94.4016 16.0209C95.0793 14.8342 96.0446 13.9297 97.2956 13.3075C98.5447 12.6851 100.021 12.374 101.721 12.374C102.56 12.374 103.334 12.4609 104.043 12.6345C104.756 12.8045 105.371 13.0434 105.889 13.3508C106.3 13.5589 106.611 13.814 106.827 14.1179C107.047 14.4218 107.157 14.7618 107.157 15.1381C107.157 15.6121 107.051 16.0137 106.842 16.3465C106.631 16.6794 106.369 16.9435 106.058 17.1352C105.525 16.654 104.9 16.2597 104.182 15.9558C103.468 15.6482 102.682 15.4927 101.823 15.4927C100.827 15.4927 99.9789 15.6953 99.281 16.1005C98.5869 16.5022 98.0648 17.0628 97.7132 17.7864C97.3616 18.5065 97.1857 19.3241 97.1857 20.2395C97.1857 21.1421 97.3432 21.9454 97.6619 22.6491C97.9787 23.3492 98.4458 23.899 99.0612 24.2988C99.6803 24.7004 100.433 24.8993 101.318 24.8993C101.937 24.8993 102.499 24.7873 103.003 24.5594C103.51 24.3331 103.933 23.9949 104.27 23.5462C104.607 23.0941 104.809 22.5531 104.878 21.9254H101.025C100.896 21.4244 100.834 20.9522 100.834 20.5072C100.834 19.5231 101.34 19.0311 102.351 19.0311H105.999Z" fill="#141E3F"/>
<path id="Vector_11" d="M118.711 16.991C118.92 17.2424 119.026 17.5825 119.026 18.0113C119.026 18.3062 118.978 18.6263 118.887 18.9736C118.799 19.3174 118.676 19.6575 118.52 19.9939C118.011 19.7298 117.429 19.5959 116.769 19.5959C116.319 19.5959 115.883 19.6973 115.458 19.8999C115.037 20.0988 114.681 20.3774 114.388 20.7392V27.7797C114.216 27.8034 114.002 27.825 113.744 27.8449C113.483 27.8684 113.227 27.8811 112.974 27.8811C112.383 27.8811 111.927 27.825 111.604 27.7147C111.282 27.6043 111.047 27.4071 110.901 27.1213C110.754 26.8372 110.681 26.4321 110.681 25.9056V19.9939C110.681 19.6575 110.624 19.4151 110.513 19.2703C110.399 19.1256 110.201 19.0533 109.919 19.0533C109.709 19.0533 109.533 19.0749 109.392 19.1183C109.322 18.8977 109.289 18.6318 109.289 18.3224C109.289 17.6567 109.476 17.1792 109.853 16.8897C110.249 16.5713 110.846 16.4121 111.648 16.4121C112.366 16.4121 112.941 16.5405 113.377 16.7956C113.811 17.0525 114.106 17.4866 114.264 18.0981C114.586 17.5681 115.006 17.1647 115.524 16.8897C116.046 16.6112 116.588 16.47 117.15 16.47C117.877 16.47 118.398 16.6437 118.711 16.991Z" fill="#141E3F"/>
<path id="Vector_12" d="M126.314 28.0251C125.048 28.0251 123.962 27.8009 123.054 27.3522C122.149 26.8999 121.458 26.2342 120.98 25.3551C120.506 24.4723 120.27 23.3995 120.27 22.1351C120.27 20.9014 120.513 19.8414 121.002 18.9586C121.495 18.0758 122.193 17.4101 123.097 16.9615C124.006 16.5092 125.072 16.2812 126.299 16.2812C127.559 16.2812 128.643 16.5092 129.553 16.9615C130.461 17.4101 131.156 18.0758 131.639 18.9586C132.124 19.8414 132.365 20.9159 132.365 22.1785C132.365 23.414 132.117 24.4723 131.618 25.3551C131.121 26.2342 130.416 26.8999 129.509 27.3522C128.603 27.8009 127.539 28.0251 126.314 28.0251ZM126.336 25.0295C127.054 25.0295 127.613 24.8016 128.013 24.3421C128.412 23.8843 128.615 23.1626 128.615 22.1785C128.615 21.1763 128.405 20.4419 127.992 19.9788C127.576 19.5158 127.004 19.2842 126.277 19.2842C125.559 19.2842 124.999 19.5139 124.599 19.9716C124.198 20.4311 123.999 21.151 123.999 22.1351C123.999 23.1336 124.206 23.8681 124.621 24.3348C125.035 24.7979 125.607 25.0295 126.336 25.0295Z" fill="#141E3F"/>
</g>
</g>
</svg>