<svg width="108" height="35" viewBox="0 0 108 35" fill="none" xmlns="http://www.w3.org/2000/svg">
<g id="Elements">
<path id="Wordmark" fill-rule="evenodd" clip-rule="evenodd" d="M72.0082 8.25167V11.3346H66.865V20.1422C66.865 22.0132 67.9365 22.9486 69.7146 22.9486C70.676 22.931 71.6259 22.7898 72.5469 22.525L73.016 25.6433C72.1414 25.9904 70.6008 26.2316 69.1991 26.2316C65.5502 26.2316 63.2566 24.1606 63.2566 20.5835V11.3346H60.1521V8.25167H63.3145V2.60352H66.8186V8.25167H72.0082ZM52.2571 15.2413C50.0561 14.7824 49.2395 14.2293 49.2395 13.1291C49.2395 11.8288 50.5485 11.0758 53.1838 11.0758C54.9967 11.0758 57.076 11.4817 58.4892 12.1054L58.8715 8.95181C57.4177 8.31051 55.1473 7.8869 53.0042 7.8869C48.6429 7.8869 45.7353 10.0873 45.7353 13.0761C45.7353 15.7943 47.3687 17.5652 50.4384 18.1948L53.0158 18.7243C55.2689 19.1832 56.213 19.8245 56.213 21.0189C56.213 22.3779 54.9909 23.0369 52.3787 23.0369C50.3284 23.0134 48.3012 22.578 46.413 21.7661L45.9786 24.9079C47.4845 25.7315 49.9577 26.2258 52.6104 26.2258C56.8443 26.2258 59.7113 24.5195 59.7113 20.96C59.7113 17.8947 57.8231 16.3944 54.2785 15.659L52.2571 15.2413ZM72.4955 17.0593C72.4955 11.9053 76.4572 7.8869 81.7626 7.8869C87.068 7.8869 91.0297 11.9053 91.0297 17.0593C91.0297 22.2132 87.0738 26.2316 81.7684 26.2316C76.463 26.2316 72.5013 22.2132 72.5013 17.0593H72.4955ZM76.0923 17.0593C76.0923 20.307 78.4786 22.8192 81.7684 22.8192C85.0582 22.8192 87.4387 20.3011 87.4387 17.0593C87.4387 13.8116 85.0582 11.2993 81.7684 11.2993C78.4786 11.2993 76.0981 13.8116 76.0981 17.0593H76.0923ZM94.018 8.25164L98.5357 14.4528L103.059 8.25164H107.2L100.771 16.871L107.345 25.861H103.21L98.5357 19.2773L93.8674 25.861H89.7261L96.3 16.871L89.8709 8.25164H94.018ZM30.0391 10.658C31.3307 8.98711 33.2942 7.8869 36.2539 7.8869C41.2118 7.8869 45.0113 11.7406 45.0113 17.1534C45.0113 22.5662 41.2118 26.2316 36.2539 26.2316C33.2942 26.2316 31.3307 25.1314 30.0391 23.4605V33.2036H26.4423V8.25756H30.0391V10.658ZM30.0623 17.1534C30.0623 20.4011 32.4775 22.9663 35.8195 22.9663C39.1788 22.9663 41.4145 20.3952 41.4203 17.1534C41.4203 13.9057 39.1846 11.1522 35.8253 11.1522H35.8195C32.4602 11.1581 30.0623 13.9057 30.0623 17.1534ZM7.94952 17.6888C8.47659 17.3122 8.9747 16.8886 9.43226 16.4238C10.2895 15.5589 11.0019 14.5646 11.5463 13.4762V18.1712C11.5463 21.0894 13.1275 22.7721 15.7976 22.7721C18.543 22.7721 20.7034 21.0894 20.7034 18.1712V8.25164H24.2944V25.8609H20.6802V23.6429C20.101 24.543 18.4445 26.2257 15.23 26.2257C10.469 26.2257 7.94373 23.2193 7.94373 18.942L7.94952 17.6888ZM0.0898438 19.7068V16.1767C2.18653 16.1708 4.19633 15.3353 5.69066 13.8586C6.42044 13.1231 7.00543 12.2524 7.40507 11.2934C7.80472 10.3285 8.01323 9.29887 8.01323 8.2575H11.5405C11.5405 9.76367 11.2451 11.2522 10.6659 12.6407C10.0925 14.0292 9.24691 15.2883 8.18699 16.3473C6.02659 18.5007 3.11903 19.7068 0.0898438 19.7068Z" fill="#41246E"/>
</g>
</svg>