<svg width="109" height="41" viewBox="0 0 109 41" fill="none" xmlns="http://www.w3.org/2000/svg">
<g id="Frame 18913">
<rect width="108.364" height="40" transform="translate(0 0.505859)" fill="white"/>
<g id="Group">
<path id="Vector" d="M22.7351 28.0818V35.3081C22.7351 35.5973 22.4601 35.757 21.9153 35.7927V36.1037H27.8798V35.7927C27.3446 35.7571 27.0744 35.5973 27.0744 35.3081V28.0818C27.0744 26.5795 26.7273 25.3618 26.0379 24.4239C25.3436 23.4863 24.4083 22.8152 23.2221 22.4064C22.036 21.9973 20.6618 21.793 19.0949 21.793C17.523 21.793 16.144 21.9973 14.9579 22.4064C13.7719 22.8152 12.8363 23.4863 12.1421 24.4239C11.4526 25.3618 11.1055 26.5795 11.1055 28.0818V31.5115H15.4451V28.0818C15.4451 27.0862 15.7535 26.3529 16.3754 25.8818C16.9976 25.4149 17.904 25.1793 19.09 25.1793C21.5199 25.1793 22.7351 26.1485 22.7351 28.0818Z" fill="#DD6620"/>
<path id="Vector_2" fill-rule="evenodd" clip-rule="evenodd" d="M15.3906 10.7861L18.7582 11.3444C18.7583 11.3445 16.0772 13.5348 15.3906 10.7861Z" fill="#3C544A"/>
<path id="Vector_3" fill-rule="evenodd" clip-rule="evenodd" d="M24.1056 10.7861L20.7383 11.3444C20.7383 11.3445 23.419 13.5348 24.1056 10.7861Z" fill="#3C544A"/>
<path id="Vector_4" d="M16.9125 8.90826H21.9009H24.7521H25.6152V4.9082H24.7521H23.4349H16.9125C15.2828 4.9082 13.9615 5.22796 12.9443 5.86361C11.9268 6.50356 11.1988 7.36591 10.7553 8.45898C10.3115 9.5524 10.0898 10.8191 10.0898 12.2635C10.0898 13.7123 10.3115 14.9835 10.7553 16.0767C11.1988 17.17 11.9269 18.0323 12.9443 18.6723C13.9616 19.3078 15.2828 19.6278 16.9125 19.6278H24.1682H24.7522H25.6153V15.6278H24.7522H21.6343H16.9125C15.8323 15.6278 15.0367 15.3435 14.5257 14.7703C14.0193 14.1968 13.7638 13.3613 13.7638 12.268C13.7638 10.028 14.8152 8.90826 16.9125 8.90826Z" fill="#DD6620"/>
<path id="Vector_5" d="M33.9683 8.65927C35.1424 8.65927 36.2558 8.85981 37.313 9.25627C38.3696 9.65727 39.2395 10.2666 39.914 11.0885C40.5881 11.9102 40.927 12.9287 40.927 14.1435C40.927 15.3501 40.5881 16.3685 39.9093 17.1983C39.2266 18.028 38.3525 18.6376 37.2824 19.0344C36.2125 19.4313 35.1076 19.6278 33.9683 19.6278C32.8376 19.6278 31.7328 19.4272 30.6542 19.0306C29.5751 18.6299 28.6968 18.0162 28.0141 17.1902C27.3352 16.3645 26.9961 15.3501 26.9961 14.1435C26.9961 12.9287 27.3308 11.9102 28.0054 11.0885C28.6752 10.2666 29.5447 9.65727 30.6148 9.25627C31.6849 8.85973 32.8026 8.65927 33.9683 8.65927ZM33.9683 11.2329C33.2982 11.2329 32.6895 11.3532 32.1459 11.5893C31.6023 11.8304 31.1761 12.171 30.8585 12.6163C30.5451 13.0569 30.3887 13.566 30.3887 14.1398C30.3887 15.0256 30.7324 15.7311 31.4196 16.2602C32.1066 16.7898 32.959 17.0542 33.9682 17.0542C34.638 17.0542 35.2421 16.934 35.7818 16.6976C36.3212 16.4567 36.7474 16.1158 37.065 15.6789C37.3778 15.238 37.5346 14.7249 37.5346 14.1398C37.5346 13.6986 37.4434 13.2976 37.2606 12.9327C37.0782 12.5681 36.8256 12.2593 36.5083 12.0105C36.1908 11.7583 35.8078 11.5656 35.3645 11.4332C34.9164 11.3009 34.451 11.2329 33.9683 11.2329ZM44.2244 18.7699V9.52897V9.51707V8.81153H51.3661C52.5964 8.81153 53.6185 9.05214 54.4279 9.52897C55.2366 10.006 55.8326 10.6476 56.2154 11.4534C56.5978 12.2592 56.7894 13.1572 56.7894 14.1435C56.7894 15.1218 56.5979 16.0197 56.2154 16.8336C55.8326 17.6474 55.2366 18.2929 54.4279 18.7699C53.6186 19.2471 52.5964 19.4876 51.3661 19.4876H44.2244V18.7815V18.7699ZM47.7166 11.1484V17.1503H49.5868C50.2873 17.1503 50.8657 17.098 51.3267 16.9937C51.7925 16.8856 52.1747 16.7134 52.4878 16.477C52.797 16.2361 53.0272 15.9315 53.1754 15.5546C53.3231 15.1819 53.3968 14.7127 53.3968 14.1473C53.3968 13.0647 53.1009 12.2913 52.5055 11.834C51.9094 11.3772 50.9399 11.1484 49.5868 11.1484H47.7166ZM60.4952 8.81153H63.9879V9.52136V18.7699V18.7837V19.4876H60.4952V18.7837V18.7765V18.7699V9.52897V9.52136V9.51419V8.81153ZM92.7979 13.6624H93.7922H98.2304V15.0346V16.9859V16.9932V17.0006V18.2475C98.0089 18.3427 97.7755 18.4352 97.5306 18.5252C96.9957 18.7176 96.3995 18.9022 95.7472 19.0747C95.0902 19.2471 94.438 19.3832 93.7897 19.4794C93.1416 19.5795 92.4982 19.6277 91.8588 19.6277C90.4841 19.6277 89.2792 19.4312 88.2442 19.0343C87.2136 18.6376 86.4131 18.032 85.8389 17.2146C85.265 16.3967 84.9779 15.374 84.9779 14.1434C84.9779 13.2293 85.165 12.4194 85.5431 11.7177C85.9217 11.0165 86.426 10.443 87.0608 9.99784C87.692 9.55284 88.4268 9.21604 89.2577 8.99153C90.0929 8.77104 90.9581 8.65918 91.8588 8.65918C92.9635 8.65918 94.0505 8.77944 95.1206 9.0238C95.3427 9.07181 95.6468 9.14406 96.0429 9.24026L96.3649 9.31836L97.2736 9.60724L96.3206 11.8453C95.5116 11.6174 94.6172 11.2858 93.8113 11.1323C93.2637 11.024 92.7897 10.9721 92.3808 10.9721C91.1844 10.9721 90.2231 11.2285 89.5012 11.7459C88.7791 12.263 88.4185 13.061 88.4185 14.1433C88.4185 15.2459 88.7881 16.0716 89.5319 16.6211C90.2754 17.1701 91.254 17.4426 92.4676 17.4426C93.4029 17.4426 94.242 17.3223 94.9902 17.078V15.4946H93.8941H92.7977H92.7833H92.0238V13.6623H92.7833H92.7979V13.6624Z" fill="#3C544A"/>
<path id="Vector_6" d="M77.931 13.2317V18.9946C77.931 19.2248 77.7117 19.3525 77.2771 19.381V19.6288H82.0335V19.381C81.6064 19.3525 81.3912 19.2248 81.3912 18.9946V13.2317C81.3912 12.0334 81.1144 11.0627 80.5649 10.315C80.0108 9.56709 79.2649 9.03192 78.3191 8.70596C77.3735 8.37982 76.2772 8.2168 75.0277 8.2168C73.7742 8.2168 72.6744 8.37973 71.7289 8.70596C70.783 9.03192 70.0366 9.56709 69.4828 10.315C68.933 11.0627 68.6562 12.0335 68.6562 13.2317V15.8759H72.117V13.2317C72.117 12.438 72.3631 11.8531 72.8592 11.4773C73.3551 11.1052 74.078 10.9174 75.0241 10.9174C76.9617 10.9173 77.931 11.6899 77.931 13.2317Z" fill="#3C544A"/>
<path id="Vector_7" d="M30.1289 21.793H33.5244V22.4762V22.4833V22.4905V31.4748V31.4812V31.4881V32.1726H30.1289V31.4881V31.4812V31.4748V22.4905V22.4833V22.4762V21.793Z" fill="#3C544A"/>
<path id="Vector_8" d="M46.7945 26.0895V31.6922C46.7945 31.9161 46.5815 32.0402 46.1591 32.0681V32.309H50.7834V32.0681C50.368 32.0402 50.1587 31.9161 50.1587 31.6922V26.0895C50.1587 24.9245 49.8896 23.9807 49.3554 23.2536C48.8167 22.5266 48.0915 22.0064 47.1719 21.6892C46.2524 21.3723 45.1866 21.2139 43.9717 21.2139C42.7532 21.2139 41.6842 21.3723 40.7647 21.6892C39.8452 22.0064 39.1194 22.5266 38.5807 23.2536C38.0464 23.9807 37.7773 24.9245 37.7773 26.0895V28.333V28.6604H41.1419V27.8743V26.0895C41.1419 25.3177 41.3816 24.749 41.8638 24.3836C42.3457 24.0218 43.0485 23.8393 43.9683 23.8393C45.8522 23.8393 46.7945 24.5905 46.7945 26.0895Z" fill="#3C544A"/>
<path id="Vector_9" d="M55.0312 31.6084L55.8047 29.2126C56.9175 29.6378 57.3199 29.9001 58.6466 29.9001C59.2683 29.9001 59.7195 29.7963 60.0084 29.596C60.2981 29.3953 60.4439 29.0273 60.4439 28.4971V24.008V22.4905V22.4788V21.793H63.8394V22.4793V22.4905V23.353V28.7814C63.8394 29.467 63.7198 30.0329 63.4802 30.481C63.2384 30.9328 62.9049 31.2884 62.4694 31.5568C62.0382 31.8222 61.5181 32.0151 60.9176 32.1339C60.3135 32.2524 59.6233 32.309 58.845 32.309C57.507 32.309 56.2978 31.9436 55.0312 31.6084Z" fill="#3C544A"/>
<path id="Vector_10" d="M72.8247 28.3607H77.0369L74.9055 23.7243L72.8247 28.3607ZM82.2375 32.1726H78.915L77.9034 30.0718H72.0172L71.0472 32.1726H68.0898C69.6877 28.6899 71.3616 25.2507 73.0239 21.793H77.1299C78.7722 25.2827 80.5137 28.7161 82.2375 32.1726Z" fill="#3C544A"/>
<path id="Vector_11" d="M86.4883 31.2515L87.2756 29.1892C88.0939 29.4204 89.2833 29.8301 90.4429 30.0088C91.2168 30.1281 91.9482 30.1839 92.6334 30.1839C93.1703 30.1839 93.6863 30.1138 94.1853 29.9774C94.6845 29.8413 94.9337 29.5762 94.9337 29.1783C94.9337 28.7849 94.4266 28.5039 93.4119 28.3443C92.397 28.1844 91.3856 28.0364 90.3798 27.9001C89.3777 27.7642 88.5005 27.4967 87.7579 27.0971C87.0167 26.6979 86.6459 26.0526 86.6459 25.1601C86.6459 24.6223 86.8407 24.0805 87.229 23.5383C87.6144 23.0009 88.236 22.5484 89.0901 22.1862C89.9442 21.8236 91.0055 21.6445 92.2784 21.6445C92.8531 21.6445 93.399 21.6737 93.9105 21.726C94.4218 21.7783 94.8537 21.836 95.2004 21.8976C96.1698 22.0712 96.9818 22.2656 97.9346 22.5019L96.8151 24.6927L95.8576 24.3311L95.8339 24.3218L95.8099 24.3128L95.8042 24.3107C95.6343 24.2458 95.4233 24.1765 95.1707 24.1038C94.3929 23.8811 93.6146 23.7688 92.8278 23.7688C90.9041 23.7688 89.9441 24.1193 89.9441 24.8172C89.9441 25.1757 90.4008 25.4254 91.3185 25.5658C92.2352 25.7059 93.2468 25.8497 94.3504 26.0019C95.4495 26.1535 96.3742 26.4409 97.1157 26.8595C97.8582 27.2786 98.2322 27.9511 98.2322 28.8746C98.2322 29.857 97.7618 30.6751 96.8281 31.326C94.6153 32.869 88.664 32.25 86.4883 31.2515Z" fill="#3C544A"/>
</g>
</g>
</svg>
