<svg width="42" height="40" viewBox="0 0 42 40" fill="none" xmlns="http://www.w3.org/2000/svg">
<g id="Group 1">
<path id="Subtract" fill-rule="evenodd" clip-rule="evenodd" d="M30.9267 0H0.851562V30.0752H30.9267V0ZM26.1147 4.81203H5.66359V25.2631H26.1147V4.81203Z" fill="black"/>
<path id="Subtract_2" fill-rule="evenodd" clip-rule="evenodd" d="M41.1533 9.9248H11.0781V40H41.1533V9.9248ZM36.3413 14.7368H15.8901V35.188H36.3413V14.7368Z" fill="black"/>
<path id="Rectangle 3" d="M15.8906 14.7373H26.1162V25.2636H15.8906V14.7373Z" fill="black"/>
<path id="Rectangle 4" d="M17.0938 15.9395H24.9133V18.0447H17.0938V15.9395Z" fill="white"/>
<path id="Rectangle 9" d="M17.6953 21.9551H25.5149V24.0603H17.6953V21.9551Z" fill="white"/>
<path id="Rectangle 5" d="M15.8906 21.9551H17.9959V30.0754H15.8906V21.9551Z" fill="white"/>
<path id="Rectangle 7" d="M11.0781 18.0449V15.9397H17.0932V18.0449H11.0781Z" fill="white"/>
<path id="Rectangle 8" d="M24.9102 24.0605V21.9553H30.9252V24.0605H24.9102Z" fill="white"/>
<path id="Rectangle 6" d="M24.0078 9.9248H26.1131V18.0451H24.0078V9.9248Z" fill="white"/>
</g>
</svg>
